HIERARCHY
ROOT Pelvis
{
	OFFSET 0.000000 0.000000 0.000000
	CHANNELS 6 Xposition Yposition Zposition Xrotation Yrotation Zrotation
	JOINT LeftUpLeg_virtual
	{
		OFFSET 0.000000 0.000000 0.000000
		CHANNELS 3 Xrotation Yrotation Zrotation
		JOINT LeftUpLeg
		{
			OFFSET 18.735201 -5.666702 -4.541200
			CHANNELS 3 Xrotation Yrotation Zrotation
			JOINT LeftLeg
			{
				OFFSET -0.021200 -31.938179 0.493100
				CHANNELS 3 Xrotation Yrotation Zrotation
				JOINT LeftFoot
				{
					OFFSET 0.021200 -31.938179 -4.336299
					CHANNELS 3 Xrotation Yrotation Zrotation
					JOINT LeftToeBase
					{
						OFFSET 0.943001 -26.722000 15.023500
						CHANNELS 3 Xrotation Yrotation Zrotation
						End Site
						{
							OFFSET 0 0 0
						}
					}
				}
			}
		}
	}
	JOINT RightUpLeg_virtual
	{
		OFFSET 0.000000 0.000000 0.000000
		CHANNELS 3 Xrotation Yrotation Zrotation
		JOINT RightUpLeg
		{
			OFFSET -18.735201 -5.666702 -4.541200
			CHANNELS 3 Xrotation Yrotation Zrotation
			JOINT RightLeg
			{
				OFFSET 0.018946 -31.938133 0.493100
				CHANNELS 3 Xrotation Yrotation Zrotation
				JOINT RightFoot
				{
					OFFSET -0.018946 -31.938126 -4.336299
					CHANNELS 3 Xrotation Yrotation Zrotation
					JOINT RightToeBase
					{
						OFFSET -0.943001 -26.722004 15.023500
						CHANNELS 3 Xrotation Yrotation Zrotation
						End Site
						{
							OFFSET 0 0 0
						}
					}
				}
			}
		}
	}
	JOINT Hips_virtual
	{
		OFFSET 0.000000 0.000000 0.000000
		CHANNELS 3 Xrotation Yrotation Zrotation
		JOINT Hips
		{
			OFFSET -0.000000 -0.000000 -0.000000
			CHANNELS 3 Xrotation Yrotation Zrotation
			JOINT Spine
			{
				OFFSET 0.000000 10.199997 -0.299500
				CHANNELS 3 Xrotation Yrotation Zrotation
				JOINT Spine1
				{
					OFFSET 0.000000 11.900002 -1.516600
					CHANNELS 3 Xrotation Yrotation Zrotation
					JOINT Spine2
					{
						OFFSET 0.000000 13.600006 -2.842500
						CHANNELS 3 Xrotation Yrotation Zrotation
						JOINT Neck_virtual
						{
							OFFSET 0.000000 0.000000 0.000000
							CHANNELS 3 Xrotation Yrotation Zrotation
							JOINT Neck
							{
								OFFSET 0.000000 9.624100 -2.890100
								CHANNELS 3 Xrotation Yrotation Zrotation
								JOINT Head
								{
									OFFSET 0.000000 14.068802 -1.351900
									CHANNELS 3 Xrotation Yrotation Zrotation
									End Site
									{
										OFFSET 0 0 0
									}
								}
							}
						}
						JOINT LeftShoulder_virtual
						{
							OFFSET 0.000000 0.000000 0.000000
							CHANNELS 3 Xrotation Yrotation Zrotation
							JOINT LeftShoulder
							{
								OFFSET 15.263000 10.923401 -0.547700
								CHANNELS 3 Xrotation Yrotation Zrotation
								JOINT LeftArm
								{
									OFFSET 25.438599 -2.830597 -13.032500
									CHANNELS 3 Xrotation Yrotation Zrotation
									JOINT LeftForeArm
									{
										OFFSET 29.960503 0.000000 0.000000
										CHANNELS 3 Xrotation Yrotation Zrotation
										JOINT LeftHand
										{
											OFFSET 27.849251 0.000000 0.000000
											CHANNELS 3 Xrotation Yrotation Zrotation
											End Site
											{
												OFFSET 0 0 0
											}
										}
									}
								}
							}
						}
						JOINT RightShoulder_virtual
						{
							OFFSET 0.000000 0.000000 0.000000
							CHANNELS 3 Xrotation Yrotation Zrotation
							JOINT RightShoulder
							{
								OFFSET -15.263000 10.923401 -0.547700
								CHANNELS 3 Xrotation Yrotation Zrotation
								JOINT RightArm
								{
									OFFSET -25.438599 -2.830597 -13.032500
									CHANNELS 3 Xrotation Yrotation Zrotation
									JOINT RightForeArm
									{
										OFFSET -29.960503 0.000000 0.000000
										CHANNELS 3 Xrotation Yrotation Zrotation
										JOINT RightHand
										{
											OFFSET -27.849251 0.000000 0.000000
											CHANNELS 3 Xrotation Yrotation Zrotation
											End Site
											{
												OFFSET 0 0 0
											}
										}
									}
								}
							}
						}
					}
				}
			}
		}
	}
}
MOTION
Frames: 5
Frame Time: 0.03333333
13.125874 6.414998 -14.121000 0.000000 0.000000 0.000000 -73.298940 58.533451 -8.172902 -114.725841 25.501146 8.749268 73.054884 4.514011 2.927510 12.366148 1.889138 2.450789 0.000000 0.000000 0.000000 -73.881869 63.347628 30.135508 -88.283815 23.262429 -13.976616 93.520036 -7.975401 -3.470730 27.562487 -6.664243 -2.464448 0.000000 0.000000 0.000000 -18.694363 9.795323 -3.406408 -59.136659 63.865588 -5.429441 16.729954 -10.440656 -6.599426 8.813670 -4.890065 -4.445309 0.000000 0.000000 0.000000 5.183509 -2.200067 -6.507268 0.801427 0.702288 -3.531478 0.000000 0.000000 0.000000 7.239412 -2.622924 1.509919 4.236028 -6.757194 3.218236 -63.023767 0.742640 -43.550116 -40.724504 -63.365687 -27.365944 0.000000 0.000000 0.000000 7.694467 -3.461504 -3.472953 6.439311 -1.993215 -14.352370 -16.573604 40.674203 59.991621 -173.917312 57.495255 179.633238 0.000000 0.000000 0.000000 
13.046838 6.420825 -13.986741 0.000000 0.000000 0.000000 -73.998529 59.210131 -7.707399 -115.022325 25.687624 8.792341 73.072342 4.712214 3.093099 12.437850 2.006855 2.848585 0.000000 0.000000 0.000000 -74.725145 63.297310 30.723857 -88.677739 23.283099 -13.833753 93.469226 -8.115782 -3.420418 27.605478 -6.860795 -2.589360 0.000000 0.000000 0.000000 -18.832959 9.984730 -3.364776 -59.076014 64.349377 -5.231358 16.903919 -10.533307 -6.628947 8.920394 -4.922919 -4.426883 0.000000 0.000000 0.000000 5.155346 -2.241154 -6.509744 0.800959 0.713051 -3.523856 0.000000 0.000000 0.000000 7.336084 -2.682895 1.511339 4.290713 -6.809264 3.343788 -63.193197 1.098912 -43.701009 -41.085097 -63.116146 -27.898195 0.000000 0.000000 0.000000 7.714302 -3.502812 -3.461439 6.447110 -2.127417 -14.535501 -16.927710 40.659730 60.170688 -173.481395 57.261444 179.261880 0.000000 0.000000 0.000000 
12.942020 6.439777 -13.746558 0.000000 0.000000 0.000000 -75.302125 60.421008 -6.782157 -115.541092 26.018467 8.876798 73.112059 5.066629 3.390418 12.573944 2.218539 3.562330 0.000000 0.000000 0.000000 -76.266377 63.183430 31.804578 -89.401091 23.308480 -13.565186 93.354158 -8.358193 -3.332615 27.678269 -7.204969 -2.807725 0.000000 0.000000 0.000000 -19.117836 10.301068 -3.286224 -59.064600 65.237698 -4.756778 17.199465 -10.689659 -6.687531 9.108115 -4.979806 -4.397823 0.000000 0.000000 0.000000 5.101543 -2.314126 -6.515847 0.805956 0.731443 -3.508998 0.000000 0.000000 0.000000 7.513757 -2.792920 1.512698 4.391091 -6.916139 3.575001 -63.478870 1.722654 -43.952728 -41.674041 -62.666904 -28.818501 0.000000 0.000000 0.000000 7.749831 -3.573963 -3.437555 6.461759 -2.351785 -14.862475 -17.577103 40.629401 60.473921 -172.715007 56.860970 178.618176 0.000000 0.000000 0.000000 
12.891431 6.486540 -13.443722 0.000000 0.000000 0.000000 -77.020143 61.919032 -5.458501 -116.161738 26.425754 8.992103 73.177930 5.508270 3.763119 12.757702 2.484690 4.455537 0.000000 0.000000 0.000000 -78.242959 62.988947 33.192090 -90.342106 23.316343 -13.206890 93.158719 -8.640404 -3.226324 27.762914 -7.617344 -3.065498 0.000000 0.000000 0.000000 -19.556829 10.637750 -3.178272 -59.301663 66.390695 -3.860862 17.537163 -10.865326 -6.772794 9.335759 -5.047157 -4.369787 0.000000 0.000000 0.000000 5.028580 -2.404267 -6.527785 0.825672 0.752396 -3.488244 0.000000 0.000000 0.000000 7.745401 -2.935995 1.511531 4.521120 -7.077748 3.874336 -63.801589 2.475732 -44.226551 -42.289260 -62.098270 -29.897391 0.000000 0.000000 0.000000 7.796243 -3.656904 -3.399633 6.482927 -2.599479 -15.265083 -18.427523 40.583294 60.822049 -171.775214 56.393351 177.847689 0.000000 0.000000 0.000000 
12.962117 6.581182 -13.118699 0.000000 0.000000 0.000000 -78.881479 63.420806 -3.905402 -116.759789 26.838276 9.114330 73.267002 5.963717 4.148763 12.962284 2.762859 5.377667 0.000000 0.000000 0.000000 -80.335292 62.710125 34.643713 -91.368779 23.292057 -12.811667 92.878073 -8.898020 -3.118179 27.846360 -8.015348 -3.301478 0.000000 0.000000 0.000000 -20.146435 10.876635 -3.049268 -60.027404 67.637881 -2.369907 17.845710 -11.019609 -6.877976 9.561905 -5.112258 -4.352415 0.000000 0.000000 0.000000 4.947902 -2.496753 -6.548205 0.868586 0.770487 -3.464299 0.000000 0.000000 0.000000 7.999910 -3.092360 1.505591 4.660904 -7.284455 4.193071 -64.093314 3.225064 -44.445349 -42.746292 -61.491797 -30.904547 0.000000 0.000000 0.000000 7.852139 -3.733870 -3.345326 6.512133 -2.809840 -15.663050 -19.379171 40.526040 61.149953 -170.808715 55.946817 177.082872 0.000000 0.000000 0.000000 
